<svg width="21" height="20" viewBox="0 0 21 20" fill="none" xmlns="http://www.w3.org/2000/svg">
    <path
        d="M10.5042 6.1524C10.5227 6.10732 10.5542 6.06877 10.5946 6.04163C10.6351 6.01449 10.6827 6 10.7314 6C10.7801 6 10.8278 6.01449 10.8682 6.04163C10.9087 6.06877 10.9401 6.10732 10.9586 6.1524L11.887 8.38533C11.9044 8.42711 11.9329 8.46329 11.9696 8.48988C12.0062 8.51647 12.0494 8.53245 12.0945 8.53605L14.5053 8.72916C14.7233 8.74663 14.8115 9.01881 14.6455 9.1608L12.8088 10.7345C12.7745 10.7638 12.7489 10.8021 12.7349 10.845C12.7209 10.8879 12.719 10.9339 12.7293 10.9778L13.2907 13.3305C13.302 13.3777 13.299 13.4271 13.2822 13.4727C13.2654 13.5182 13.2355 13.5577 13.1962 13.5862C13.1569 13.6147 13.1101 13.631 13.0616 13.6329C13.0131 13.6348 12.9651 13.6223 12.9237 13.597L10.8594 12.3365C10.8209 12.313 10.7766 12.3006 10.7314 12.3006C10.6863 12.3006 10.642 12.313 10.6034 12.3365L8.53913 13.5974C8.49773 13.6227 8.44976 13.6352 8.40127 13.6333C8.35278 13.6314 8.30594 13.6152 8.26667 13.5866C8.2274 13.5581 8.19746 13.5186 8.18064 13.4731C8.16381 13.4276 8.16086 13.3781 8.17214 13.3309L8.73354 10.9778C8.74395 10.9339 8.74204 10.8879 8.72801 10.845C8.71398 10.802 8.68838 10.7638 8.65403 10.7345L6.81735 9.1608C6.78057 9.12918 6.75396 9.08738 6.74087 9.04067C6.72779 8.99397 6.7288 8.94443 6.74379 8.8983C6.75878 8.85216 6.78707 8.81149 6.82511 8.7814C6.86316 8.7513 6.90925 8.73313 6.95759 8.72916L9.36834 8.53605C9.41345 8.53245 9.45669 8.51647 9.4933 8.48988C9.52991 8.46329 9.55848 8.42711 9.57586 8.38533L10.5042 6.1524Z"
        stroke="#D48D3B" stroke-width="2.354" stroke-linecap="round" stroke-linejoin="round" />
</svg>
    